grf
version=1
nRows=15
nColumns=37
inDegrees=no
endheader
time	ground_force_1_vx	ground_force_1_vy	ground_force_1_vz	ground_force_1_px	ground_force_1_py	ground_force_1_pz	ground_moment_1_mx	ground_moment_1_my	ground_moment_1_mz	ground_force_2_vx	ground_force_2_vy	ground_force_2_vz	ground_force_2_px	ground_force_2_py	ground_force_2_pz	ground_moment_2_mx	ground_moment_2_my	ground_moment_2_mz	ground_force_3_vx	ground_force_3_vy	ground_force_3_vz	ground_force_3_px	ground_force_3_py	ground_force_3_pz	ground_moment_3_mx	ground_moment_3_my	ground_moment_3_mz	ground_force_4_vx	ground_force_4_vy	ground_force_4_vz	ground_force_4_px	ground_force_4_py	ground_force_4_pz	ground_moment_4_mx	ground_moment_4_my	ground_moment_4_mz
      4.60000000	      0.00000000	     -0.00000000	      0.00000000	      0.00000000	      0.00000000	      0.00000000	      0.00000000	      0.00000000	      0.00000000	      2.66977668	     33.76082611	   -365.16217041	   -422.80542226	  -1080.90737440	      0.00000000	      0.00000000	      0.00000000	   1115.27113005	     -8.42752900	    -50.69002459	   -402.97332764	   -399.63216432	   -763.54063272	      0.00000000	      0.00000000	     -0.00000000	   -941.42683434	      0.00000000	     -0.00000000	      0.00000000	      0.00000000	      0.00000000	      0.00000000	      0.00000000	      0.00000000	      0.00000000
      4.61000000	      0.00000000	     -0.00000000	      0.00000000	      0.00000000	      0.00000000	      0.00000000	      0.00000000	      0.00000000	      0.00000000	      2.28744578	     33.95228577	   -368.74520874	   -423.13775462	  -1079.84130728	      0.00000000	      0.00000000	      0.00000000	   1511.19037978	     -8.84500638	    -48.10287017	   -395.31658936	   -400.12147193	   -763.51054257	      0.00000000	      0.00000000	     -0.00000000	   -811.38657131	      0.00000000	     -0.00000000	      0.00000000	      0.00000000	      0.00000000	      0.00000000	      0.00000000	      0.00000000	      0.00000000
      4.62000000	      0.00000000	     -0.00000000	      0.00000000	      0.00000000	      0.00000000	      0.00000000	      0.00000000	      0.00000000	      0.00000000	      1.77157533	     33.60847855	   -366.42269897	   -423.45486289	  -1078.38903995	      0.00000000	      0.00000000	      0.00000000	   1647.06704688	     -8.31952197	    -44.37590717	   -382.29571533	   -400.41046612	   -764.27576370	      0.00000000	      0.00000000	     -0.00000000	   -665.35584166	      0.00000000	     -0.00000000	      0.00000000	      0.00000000	      0.00000000	      0.00000000	      0.00000000	      0.00000000	      0.00000000
      4.63000000	      0.00000000	     -0.00000000	      0.00000000	      0.00000000	      0.00000000	      0.00000000	      0.00000000	      0.00000000	      0.00000000	      0.57237071	     33.86337280	   -364.00610352	   -422.67045123	  -1081.31708640	      0.00000000	      0.00000000	      0.00000000	   1223.14284551	     -8.35771638	    -41.57442783	   -362.39459229	   -401.10707832	   -765.23342195	      0.00000000	      0.00000000	     -0.00000000	   -748.42839965	      0.00000000	     -0.00000000	      0.00000000	      0.00000000	      0.00000000	      0.00000000	      0.00000000	      0.00000000	      0.00000000
      4.64000000	      0.00000000	     -0.00000000	      0.00000000	      0.00000000	      0.00000000	      0.00000000	      0.00000000	      0.00000000	      0.00000000	      1.04625773	     34.48740768	   -353.74932861	   -424.00860550	  -1078.35800728	      0.00000000	      0.00000000	      0.00000000	   1456.93028989	     -8.52860496	    -37.95985720	   -340.37417603	   -401.13579616	   -765.17124622	      0.00000000	      0.00000000	     -0.00000000	   -634.95146773	      0.00000000	     -0.00000000	      0.00000000	      0.00000000	      0.00000000	      0.00000000	      0.00000000	      0.00000000	      0.00000000
      4.65000000	      0.00000000	     -0.00000000	      0.00000000	      0.00000000	      0.00000000	      0.00000000	      0.00000000	      0.00000000	      0.00000000	      2.16478586	     34.75492859	   -349.13055420	   -422.78531613	  -1081.13473096	      0.00000000	      0.00000000	      0.00000000	   1167.56074501	     -7.88316271	    -35.10986641	   -318.02951050	   -402.21852916	   -766.26365958	      0.00000000	      0.00000000	     -0.00000000	   -748.20768022	      0.00000000	     -0.00000000	      0.00000000	      0.00000000	      0.00000000	      0.00000000	      0.00000000	      0.00000000	      0.00000000
      4.66000000	      0.00000000	     -0.00000000	      0.00000000	      0.00000000	      0.00000000	      0.00000000	      0.00000000	      0.00000000	      0.00000000	      2.75383520	     34.92159653	   -341.14868164	   -423.66616977	  -1079.91058400	      0.00000000	      0.00000000	      0.00000000	   1190.30092497	     -6.45800255	    -32.53727666	   -300.27038574	   -402.54085115	   -765.12092493	      0.00000000	      0.00000000	     -0.00000000	   -453.94852518	      0.00000000	     -0.00000000	      0.00000000	      0.00000000	      0.00000000	      0.00000000	      0.00000000	      0.00000000	      0.00000000
      4.67000000	      0.00000000	     -0.00000000	      0.00000000	      0.00000000	      0.00000000	      0.00000000	      0.00000000	      0.00000000	      0.00000000	      4.03732347	     34.77798080	   -335.54354858	   -424.98353238	  -1080.96065244	      0.00000000	      0.00000000	      0.00000000	   1229.74458306	     -3.38850433	    -30.71272630	   -282.78985596	   -403.23572443	   -766.63020459	      0.00000000	      0.00000000	     -0.00000000	   -569.32805165	      0.00000000	     -0.00000000	      0.00000000	      0.00000000	      0.00000000	      0.00000000	      0.00000000	      0.00000000	      0.00000000
      4.68000000	      0.00000000	     -0.00000000	      0.00000000	      0.00000000	      0.00000000	      0.00000000	      0.00000000	      0.00000000	      0.00000000	      5.62585688	     34.57141495	   -332.67333984	   -425.91053477	  -1079.38025289	      0.00000000	      0.00000000	      0.00000000	   1227.18617770	     -2.21777216	    -29.05783443	   -268.21591187	   -403.90260372	   -764.86202585	      0.00000000	      0.00000000	     -0.00000000	   -696.41781032	      0.00000000	     -0.00000000	      0.00000000	      0.00000000	      0.00000000	      0.00000000	      0.00000000	      0.00000000	      0.00000000
      4.69000000	      0.00000000	     -0.00000000	      0.00000000	      0.00000000	      0.00000000	      0.00000000	      0.00000000	      0.00000000	      0.00000000	      6.66887808	     33.52944946	   -332.67379761	   -424.89728673	  -1081.04761246	      0.00000000	     -0.00000000	      0.00000000	   1135.62131519	     -2.27290135	    -27.90965251	   -253.76713562	   -404.47075885	   -763.23127077	      0.00000000	      0.00000000	     -0.00000000	   -745.86557071	      0.00000000	     -0.00000000	      0.00000000	      0.00000000	      0.00000000	      0.00000000	      0.00000000	      0.00000000	      0.00000000
      4.70000000	      0.00000000	     -0.00000000	      0.00000000	      0.00000000	      0.00000000	      0.00000000	      0.00000000	      0.00000000	      0.00000000	      7.93436289	     32.89985657	   -333.55075073	   -426.46226081	  -1079.52812282	      0.00000000	      0.00000000	      0.00000000	   1139.55737146	     -1.89588427	    -27.21401579	   -239.99685669	   -405.28894742	   -767.43897906	      0.00000000	      0.00000000	     -0.00000000	   -910.89569461	      0.00000000	     -0.00000000	      0.00000000	      0.00000000	      0.00000000	      0.00000000	      0.00000000	      0.00000000	      0.00000000
      4.71000000	      0.00000000	     -0.00000000	      0.00000000	      0.00000000	      0.00000000	      0.00000000	      0.00000000	      0.00000000	      0.00000000	      9.00502205	     33.06738281	   -336.26879883	   -425.98820495	  -1080.01626521	      0.00000000	      0.00000000	      0.00000000	   1276.26392826	     -1.14252127	    -25.95590200	   -232.08032227	   -405.49881000	   -766.26569637	      0.00000000	      0.00000000	     -0.00000000	   -927.25871605	      0.00000000	     -0.00000000	      0.00000000	      0.00000000	      0.00000000	      0.00000000	      0.00000000	      0.00000000	      0.00000000
      4.72000000	      0.00000000	     -0.00000000	      0.00000000	      0.00000000	      0.00000000	      0.00000000	      0.00000000	      0.00000000	      0.00000000	      9.61424065	     33.75994873	   -345.09738159	   -426.70430595	  -1079.44598909	      0.00000000	      0.00000000	      0.00000000	   1318.09968518	     -0.17217869	    -23.24426840	   -219.28785706	   -404.60560272	   -764.81457545	      0.00000000	      0.00000000	     -0.00000000	   -901.85471365	      0.00000000	     -0.00000000	      0.00000000	      0.00000000	      0.00000000	      0.00000000	      0.00000000	      0.00000000	      0.00000000
      4.73000000	      0.00000000	     -0.00000000	      0.00000000	      0.00000000	      0.00000000	      0.00000000	      0.00000000	      0.00000000	      0.00000000	      9.88739681	     35.89961243	   -362.65655518	   -426.51866777	  -1080.79059791	      0.00000000	     -0.00000000	      0.00000000	   1335.14653108	      0.71479684	    -19.05712515	   -202.07829285	   -406.04564616	   -764.78728822	      0.00000000	      0.00000000	     -0.00000000	  -1149.27786102	      0.00000000	     -0.00000000	      0.00000000	      0.00000000	      0.00000000	      0.00000000	      0.00000000	      0.00000000	      0.00000000
      4.74000000	      0.00000000	     -0.00000000	      0.00000000	      0.00000000	      0.00000000	      0.00000000	      0.00000000	      0.00000000	      0.00000000	      9.98176956	     39.21247864	   -384.02310181	   -427.51800385	  -1078.56629628	      0.00000000	      0.00000000	      0.00000000	   1353.13864468	      1.21179156	    -14.53804790	   -179.11477661	   -408.72951933	   -767.52083862	      0.00000000	      0.00000000	     -0.00000000	  -1225.03310303	      0.00000000	     -0.00000000	      0.00000000	      0.00000000	      0.00000000	      0.00000000	      0.00000000	      0.00000000	      0.00000000
